# xmcd
# 
# Track frame offsets:
#     150
#     39370
#     80515
#     129900
#     159920
# 
# Disc length: 3177
# 
# Revision: 1
# Processed by: cddbd v1.5.2PL0 Copyright (c) Steve Scherf et al.
# Submitted via: fre:ac v1.0.17
# 
DISCID=2d0c6705
DTITLE=Deep Purple - Mary Lose Gear In Fire - Disc 1
DYEAR=1973
DGENRE=Rock
TTITLE0=Highway Star
TTITLE1=Smoke On The Water
TTITLE2=Strange Kind Of Woman
TTITLE3=Mary Long
TTITLE4=Lazy \\ The Mule
EXTD=
EXTT0=
EXTT1=
EXTT2=
EXTT3=
EXTT4=
PLAYORDER=
